
<svg width="40px" height="40px" viewBox="0 0 40 40" version="1.1" xmlns="http://www.w3.org/2000/svg" xmlns:xlink="http://www.w3.org/1999/xlink">
    <!-- Generator: Sketch 50.2 (55047) - http://www.bohemiancoding.com/sketch -->
    <desc>Created with Sketch.</desc>
    <defs></defs>
    <g id="Page-1" stroke="none" stroke-width="1" fill="none" fill-rule="evenodd">
        <g id="BKR_icons_MS_V2-(dragged)-3">
            <g id="Group">
                <path d="M12.8863,16.4431 C12.8863,12.5241 16.0643,9.3471 19.9833,9.3471 C23.9023,9.3471 27.0783,12.5241 27.0783,16.4431 C27.0783,20.3621 23.9023,23.5391 19.9833,23.5391 C16.0643,23.5391 12.8863,20.3621 12.8863,16.4431 Z" id="Stroke-2" stroke="#000000" stroke-width="0.5" stroke-linecap="round" stroke-linejoin="round"></path>
                <path d="M28.9498,31.0666 C28.9498,25.4326 26.0868,24.5396 23.4298,24.5536 L19.9828,27.8106 L16.3588,24.5536 C13.7028,24.5396 10.8398,25.4326 10.8398,31.0666" id="Stroke-3" stroke="#000000" stroke-width="0.5" stroke-linecap="round" stroke-linejoin="round"></path>
                <path d="M11.7584,20.3259 L8.9604,22.8399 L6.2994,20.3259 C4.2484,20.3149 2.0374,21.0039 2.0374,25.3539 L2.0374,31.5929" id="Stroke-4" stroke="#000000" stroke-width="0.5" stroke-linecap="round" stroke-linejoin="round"></path>
                <path d="M13.7388,11.0993 C12.7618,9.5853 11.0688,8.5783 9.1338,8.5783 C6.1038,8.5783 3.6478,11.0343 3.6478,14.0633 C3.6478,17.0933 6.1038,19.5493 9.1338,19.5493 C10.2178,19.5493 11.2228,19.2243 12.0748,18.6813" id="Stroke-5" stroke="#000000" stroke-width="0.5" stroke-linecap="round" stroke-linejoin="round"></path>
                <path d="M5.0494,26.9646 L5.0494,31.5926" id="Stroke-6" stroke="#000000" stroke-width="0.5" stroke-linecap="round" stroke-linejoin="round"></path>
                <path d="M29.2467,20.3259 L32.0447,22.8399 L34.7067,20.3259 C36.7577,20.3149 38.9677,21.0039 38.9677,25.3539 L38.9677,31.5929" id="Stroke-7" stroke="#000000" stroke-width="0.5" stroke-linecap="round" stroke-linejoin="round"></path>
                <path d="M27.2662,11.0993 C28.2432,9.5853 29.9362,8.5783 31.8712,8.5783 C34.9012,8.5783 37.3572,11.0343 37.3572,14.0633 C37.3572,17.0933 34.9012,19.5493 31.8712,19.5493 C30.7872,19.5493 29.7822,19.2243 28.9302,18.6813" id="Stroke-8" stroke="#000000" stroke-width="0.5" stroke-linecap="round" stroke-linejoin="round"></path>
                <path d="M35.9556,26.9646 L35.9556,31.5926" id="Stroke-9" stroke="#000000" stroke-width="0.5" stroke-linecap="round" stroke-linejoin="round"></path>
                <path d="M20.9527,10.7727 C21.3387,13.0067 21.1477,15.1557 17.4667,15.3907 C14.7067,15.5657 13.8927,16.9437 13.6047,19.5397" id="Stroke-10" stroke="#000000" stroke-width="0.5" stroke-linecap="round" stroke-linejoin="round"></path>
                <path d="M20.9527,10.7727 C21.8677,13.3207 24.5187,15.8757 27.0527,15.8677187" id="Stroke-11" stroke="#000000" stroke-width="0.5" stroke-linecap="round" stroke-linejoin="round"></path>
                <polyline id="Stroke-12" stroke="#000000" stroke-width="0.5" stroke-linecap="round" stroke-linejoin="round" points="12.8297 13.0622 11.6667 13.0622 11.2597 11.9142 10.1397 13.0832 3.7377 13.0832"></polyline>
                <path d="M3.6597,14.4621 L3.6707,20.8291" id="Stroke-13" stroke="#000000" stroke-width="0.5" stroke-linecap="round" stroke-linejoin="round"></path>
                <path d="M31.6988,8.6252 C31.8428,10.3212 30.3808,11.5742 28.9188,12.4312" id="Stroke-14" stroke="#000000" stroke-width="0.5" stroke-linecap="round" stroke-linejoin="round"></path>
                <path d="M32.9117,8.7165 C33.0487,10.5285 32.6097,11.4855 31.0577,12.5155" id="Stroke-15" stroke="#000000" stroke-width="0.5" stroke-linecap="round" stroke-linejoin="round"></path>
                <path d="M34.4664,9.2297 C34.6764,10.7667 33.8424,11.7977 32.8984,12.4307" id="Stroke-16" stroke="#000000" stroke-width="0.5" stroke-linecap="round" stroke-linejoin="round"></path>
                <path d="M30.15,8.8611 C30.079,9.8491 29.461,10.7851 28.31,11.4351" id="Stroke-17" stroke="#000000" stroke-width="0.5" stroke-linecap="round" stroke-linejoin="round"></path>
                <path d="M35.8834,10.322 C35.8444,11.239 35.4074,11.786 34.7954,12.254" id="Stroke-18" stroke="#000000" stroke-width="0.5" stroke-linecap="round" stroke-linejoin="round"></path>
                <rect id="Rectangle-Copy-2" fill-opacity="0" fill="#FFFFFF" x="0" y="0" width="40" height="40"></rect>
            </g>
        </g>
    </g>
</svg>