
<svg width="40px" height="40px" viewBox="0 0 40 40" version="1.1" xmlns="http://www.w3.org/2000/svg" xmlns:xlink="http://www.w3.org/1999/xlink">
    <!-- Generator: Sketch 50.2 (55047) - http://www.bohemiancoding.com/sketch -->
    <desc>Created with Sketch.</desc>
    <defs></defs>
    <g id="Page-1" stroke="none" stroke-width="1" fill="none" fill-rule="evenodd">
        <g id="BKR_icons_MS_V2-(dragged)">
            <g id="Group">
                <path d="M22.6158,32.5881 L13.5078,32.5881 C9.3918,30.2171 6.5078,24.7361 6.5078,18.3481 C6.5078,18.3291 6.5108,18.3121 6.5108,18.2931 L29.6138,18.2931 C29.6138,18.3121 29.6158,18.3291 29.6158,18.3481 C29.6158,24.7361 26.7318,30.2171 22.6158,32.5881 Z" id="Stroke-2" stroke="#000000" stroke-width="0.5" stroke-linecap="round" stroke-linejoin="round"></path>
                <path d="M29.5631,21.2971 L31.3631,21.2971 C32.9271,21.2971 34.1961,22.5661 34.1961,24.1301 C34.1961,25.6941 32.9271,26.9631 31.3631,26.9631 L27.6991,26.9631" id="Stroke-3" stroke="#000000" stroke-width="0.5" stroke-linecap="round" stroke-linejoin="round"></path>
                <path d="M10.022,34.6731 L26.101,34.6731 C26.445,34.6731 26.726,34.3921 26.726,34.0481 L26.726,33.2131 C26.726,32.8691 26.445,32.5881 26.101,32.5881 L10.022,32.5881 C9.678,32.5881 9.397,32.8691 9.397,33.2131 L9.397,34.0481 C9.397,34.3921 9.678,34.6731 10.022,34.6731 Z" id="Stroke-4" stroke="#000000" stroke-width="0.5" stroke-linecap="round" stroke-linejoin="round"></path>
                <path d="M22.8472,14.5197 C24.0402,13.3267 24.0402,11.3957 22.8472,10.2027" id="Stroke-5" stroke="#000000" stroke-width="0.5" stroke-linecap="round" stroke-linejoin="round"></path>
                <path d="M22.8472,5.886 C21.6542,7.079 21.6542,9.01 22.8472,10.203" id="Stroke-6" stroke="#000000" stroke-width="0.5" stroke-linecap="round" stroke-linejoin="round"></path>
                <path d="M18.0621,14.5197 C19.2541,13.3267 19.2541,11.3957 18.0621,10.2027" id="Stroke-7" stroke="#000000" stroke-width="0.5" stroke-linecap="round" stroke-linejoin="round"></path>
                <path d="M18.0621,5.886 C16.8691,7.079 16.8691,9.01 18.0621,10.203" id="Stroke-8" stroke="#000000" stroke-width="0.5" stroke-linecap="round" stroke-linejoin="round"></path>
                <path d="M13.276,14.5197 C14.469,13.3267 14.469,11.3957 13.276,10.2027" id="Stroke-9" stroke="#000000" stroke-width="0.5" stroke-linecap="round" stroke-linejoin="round"></path>
                <path d="M13.276,5.886 C12.084,7.079 12.084,9.01 13.276,10.203" id="Stroke-10" stroke="#000000" stroke-width="0.5" stroke-linecap="round" stroke-linejoin="round"></path>
                <rect id="Rectangle" fill-opacity="0" fill="#FFFFFF" x="0" y="0" width="40" height="40"></rect>
            </g>
        </g>
    </g>
</svg>