
<svg width="40px" height="40px" viewBox="0 0 40 40" version="1.1" xmlns="http://www.w3.org/2000/svg" xmlns:xlink="http://www.w3.org/1999/xlink">
    <!-- Generator: Sketch 50.2 (55047) - http://www.bohemiancoding.com/sketch -->
    <desc>Created with Sketch.</desc>
    <defs></defs>
    <g id="Page-1" stroke="none" stroke-width="1" fill="none" fill-rule="evenodd">
        <g id="BKR_icons_MS_V2-(dragged)-2">
            <g id="Group">
                <path d="M35.2506,20.4483 C35.2506,12.0583 28.4486,5.2573 20.0596,5.2573 C11.6696,5.2573 4.8676,12.0583 4.8676,20.4483" id="Stroke-2" stroke="#000000" stroke-width="0.5" stroke-linecap="round" stroke-linejoin="round"></path>
                <path d="M37.4791,17.5523 L35.3131,20.4353" id="Stroke-3" stroke="#000000" stroke-width="0.5" stroke-linecap="round" stroke-linejoin="round"></path>
                <path d="M32.5015,18.1763 L35.3135,20.4353" id="Stroke-4" stroke="#000000" stroke-width="0.5" stroke-linecap="round" stroke-linejoin="round"></path>
                <path d="M5.3834,22.149 C6.8764,30.405 14.7794,35.887 23.0354,34.394 C29.3854,33.245 34.0934,28.306 35.2504,22.331" id="Stroke-5" stroke="#000000" stroke-width="0.5" stroke-linecap="round" stroke-linejoin="round"></path>
                <path d="M3.7056,25.3956 L5.3236,22.1726" id="Stroke-6" stroke="#000000" stroke-width="0.5" stroke-linecap="round" stroke-linejoin="round"></path>
                <path d="M8.4928,23.8956 L5.3238,22.1726" id="Stroke-7" stroke="#000000" stroke-width="0.5" stroke-linecap="round" stroke-linejoin="round"></path>
                <path d="M15.4244,19.8629 C15.4244,17.3019 17.5004,15.2259 20.0624,15.2259 C22.6224,15.2259 24.6984,17.3019 24.6984,19.8629 C24.6984,22.4239 22.6224,24.5009 20.0624,24.5009 C17.5004,24.5009 15.4244,22.4239 15.4244,19.8629 Z" id="Stroke-8" stroke="#000000" stroke-width="0.5" stroke-linecap="round" stroke-linejoin="round"></path>
                <path d="M20.0621,13.314 L20.0621,10.338" id="Stroke-9" stroke="#000000" stroke-width="0.5" stroke-linecap="round" stroke-linejoin="round"></path>
                <path d="M20.0621,29.4058 L20.0621,26.4298" id="Stroke-10" stroke="#000000" stroke-width="0.5" stroke-linecap="round" stroke-linejoin="round"></path>
                <path d="M26.6197,19.8721 L29.5957,19.8721" id="Stroke-11" stroke="#000000" stroke-width="0.5" stroke-linecap="round" stroke-linejoin="round"></path>
                <path d="M10.5279,19.8721 L13.5039,19.8721" id="Stroke-12" stroke="#000000" stroke-width="0.5" stroke-linecap="round" stroke-linejoin="round"></path>
                <path d="M24.6988,24.5093 L26.8028,26.6133" id="Stroke-13" stroke="#000000" stroke-width="0.5" stroke-linecap="round" stroke-linejoin="round"></path>
                <path d="M13.3199,13.1309 L15.4239,15.2349" id="Stroke-14" stroke="#000000" stroke-width="0.5" stroke-linecap="round" stroke-linejoin="round"></path>
                <path d="M15.4244,24.5093 L13.3204,26.6133" id="Stroke-15" stroke="#000000" stroke-width="0.5" stroke-linecap="round" stroke-linejoin="round"></path>
                <path d="M26.8033,13.1309 L24.6993,15.2349" id="Stroke-16" stroke="#000000" stroke-width="0.5" stroke-linecap="round" stroke-linejoin="round"></path>
                <path d="M14.0767,22.5538 L12.4837,23.2678" id="Stroke-17" stroke="#000000" stroke-width="0.5" stroke-linecap="round" stroke-linejoin="round"></path>
                <path d="M27.8414,16.3868 L26.0464,17.1908" id="Stroke-18" stroke="#000000" stroke-width="0.5" stroke-linecap="round" stroke-linejoin="round"></path>
                <path d="M13.9312,17.4522 L12.2992,16.8302" id="Stroke-19" stroke="#000000" stroke-width="0.5" stroke-linecap="round" stroke-linejoin="round"></path>
                <path d="M28.025,22.8238 L26.187,22.1238" id="Stroke-20" stroke="#000000" stroke-width="0.5" stroke-linecap="round" stroke-linejoin="round"></path>
                <path d="M17.4351,13.7413 L16.7221,12.1483" id="Stroke-21" stroke="#000000" stroke-width="0.5" stroke-linecap="round" stroke-linejoin="round"></path>
                <path d="M23.6031,27.5059 L22.7981,25.7119" id="Stroke-22" stroke="#000000" stroke-width="0.5" stroke-linecap="round" stroke-linejoin="round"></path>
                <path d="M22.5377,13.5958 L23.1587,11.9648" id="Stroke-23" stroke="#000000" stroke-width="0.5" stroke-linecap="round" stroke-linejoin="round"></path>
                <path d="M17.1656,27.6895 L17.8656,25.8525" id="Stroke-24" stroke="#000000" stroke-width="0.5" stroke-linecap="round" stroke-linejoin="round"></path>
                <rect id="Rectangle-Copy-3" fill-opacity="0" fill="#FFFFFF" x="0" y="0" width="40" height="40"></rect>
            </g>
        </g>
    </g>
</svg>